<svg width="25" height="24" viewBox="0 0 25 24" fill="none" xmlns="http://www.w3.org/2000/svg">
<rect x="0.5" width="24" height="24" rx="12" fill="white"/>
<path d="M8.39781 6.45073L12.6236 4L16.8493 6.45073L15.2957 7.35609L12.6236 5.81073L9.9514 7.35609L8.39781 6.45073ZM16.8493 9.54145L15.2957 8.63609L12.6236 10.1815L9.9514 8.63609L8.39781 9.54145V11.3522L11.07 12.8975V15.9883L12.6236 16.8937L14.1771 15.9883V12.8975L16.8493 11.3522V9.54145ZM16.8493 14.4429V12.6322L15.2957 13.5375V15.3483L16.8493 14.4429ZM17.9523 15.0829L15.2802 16.6283V18.439L19.5059 15.9883V11.0868L17.9523 11.9922V15.0829ZM16.3987 7.99609L17.9523 8.90145V10.7122L19.5059 9.80682V7.99609L17.9523 7.09073L16.3987 7.99609ZM11.07 17.2839V19.0946L12.6236 20L14.1771 19.0946V17.2839L12.6236 18.1893L11.07 17.2839ZM8.39781 14.4429L9.9514 15.3483V13.5375L8.39781 12.6322V14.4429ZM11.07 7.99609L12.6236 8.90145L14.1771 7.99609L12.6236 7.09073L11.07 7.99609ZM7.29479 8.90145L8.84838 7.99609L7.29479 7.09073L5.74121 7.99609V9.80682L7.29479 10.7122V8.90145ZM7.29479 11.9922L5.74121 11.0868V15.9883L9.96692 18.439V16.6283L7.29479 15.0829V11.9922Z" fill="#1B3034"/>
</svg>
