<svg width="24" height="24" viewBox="0 0 24 24" fill="none" xmlns="http://www.w3.org/2000/svg">
<rect width="24" height="24" rx="12" fill="#F3BA2F"/>
<path d="M7.89781 6.45073L12.1236 4L16.3493 6.45073L14.7957 7.35609L12.1236 5.81073L9.4514 7.35609L7.89781 6.45073ZM16.3493 9.54145L14.7957 8.63609L12.1236 10.1815L9.4514 8.63609L7.89781 9.54145V11.3522L10.57 12.8975V15.9883L12.1236 16.8937L13.6771 15.9883V12.8975L16.3493 11.3522V9.54145ZM16.3493 14.4429V12.6322L14.7957 13.5375V15.3483L16.3493 14.4429ZM17.4523 15.0829L14.7802 16.6283V18.439L19.0059 15.9883V11.0868L17.4523 11.9922V15.0829ZM15.8987 7.99609L17.4523 8.90145V10.7122L19.0059 9.80682V7.99609L17.4523 7.09073L15.8987 7.99609ZM10.57 17.2839V19.0946L12.1236 20L13.6771 19.0946V17.2839L12.1236 18.1893L10.57 17.2839ZM7.89781 14.4429L9.4514 15.3483V13.5375L7.89781 12.6322V14.4429ZM10.57 7.99609L12.1236 8.90145L13.6771 7.99609L12.1236 7.09073L10.57 7.99609ZM6.79479 8.90145L8.34838 7.99609L6.79479 7.09073L5.24121 7.99609V9.80682L6.79479 10.7122V8.90145ZM6.79479 11.9922L5.24121 11.0868V15.9883L9.46692 18.439V16.6283L6.79479 15.0829V11.9922Z" fill="white"/>
</svg>
