<svg width="65" height="64" viewBox="0 0 65 64" fill="none" xmlns="http://www.w3.org/2000/svg">
<path d="M19.3742 58.1547C26.5955 58.1547 32.4515 52.2987 32.4515 45.0773C32.4515 37.856 26.5982 32 19.3742 32C12.1502 32 6.29687 37.856 6.29687 45.0773" stroke="#323232" stroke-width="4" stroke-linecap="round" stroke-linejoin="round"/>
<path d="M19.388 58.1649C17.42 58.1649 15.556 57.7302 13.8813 56.9542L5.83333 58.6636L7.51599 50.5996C6.73466 48.9196 6.29733 47.0476 6.29733 45.0742" stroke="#323232" stroke-width="4" stroke-linecap="round" stroke-linejoin="round"/>
<path d="M17.9853 32.0742C17.0307 29.8848 16.5 27.4982 16.5 24.9942C16.5 14.2822 26.0947 5.6875 37.8333 5.6875C49.572 5.6875 59.1667 14.2822 59.1667 24.9942C59.1667 31.3248 55.8013 36.8982 50.636 40.4128C50.6387 42.4288 50.6333 45.1462 50.6333 47.9995L42.2627 43.8768C40.8307 44.1515 39.3507 44.3008 37.8333 44.3008C35.948 44.3008 34.1187 44.0768 32.3747 43.6582" stroke="#323232" stroke-width="4" stroke-linecap="round" stroke-linejoin="round"/>
</svg>
