<svg width="40" height="40" viewBox="0 0 40 40" fill="#E6F8EF" xmlns="http://www.w3.org/2000/svg">
<rect width="40" height="40" rx="20" fill="#E6F8EF"/>
<path d="M17.9313 21.8059C18.033 21.4774 18.0811 21.1346 18.0739 20.7907C18.0723 20.4173 18.0146 20.0462 17.9028 19.69C17.7786 19.3318 17.5762 19.0058 17.3102 18.7357C17.2003 18.6164 17.0762 18.5111 16.9407 18.4219C16.8479 18.3625 16.7498 18.3117 16.6477 18.2702C16.6195 18.26 16.594 18.2435 16.5695 18.2262C16.5568 18.2171 16.5435 18.2089 16.5297 18.2015C16.3518 18.1318 16.1553 18.1259 15.9735 18.1847C15.7067 18.2519 15.4527 18.3622 15.2215 18.5114C14.9319 18.7077 14.6835 18.9587 14.4903 19.2504C14.2679 19.5562 14.1084 19.903 14.0209 20.2708C13.9401 20.6248 13.9177 20.9896 13.9548 21.3508C13.9738 21.5377 14.0174 21.7212 14.0844 21.8967C14.1485 22.0752 14.2329 22.2457 14.336 22.4049C14.5698 22.7405 14.9095 22.9879 15.3006 23.1076C15.4957 23.1714 15.6969 23.2148 15.9009 23.2373C15.9439 23.2422 15.9872 23.2448 16.0306 23.2451C16.1785 23.2428 16.3256 23.2228 16.4688 23.1854C16.7937 23.1033 17.0937 22.9431 17.3427 22.7187C17.6191 22.4743 17.8228 22.1585 17.9313 21.8059ZM25.6807 21.6062C25.7916 21.2386 25.816 20.8504 25.752 20.4718C25.6902 20.0725 25.5496 19.6895 25.3384 19.3451C25.139 19.0186 24.8741 18.737 24.5605 18.5179C24.5064 18.4826 24.4505 18.4504 24.393 18.4214C24.2342 18.3411 24.0948 18.2151 23.9337 18.1396C23.8502 18.1005 23.7575 18.0851 23.6659 18.0952C23.4183 18.1321 23.1833 18.2286 22.9813 18.3766C22.6664 18.5751 22.3839 18.8208 22.1438 19.1052C22.0081 19.2642 21.8911 19.4382 21.795 19.6238C21.7024 19.8168 21.6344 20.0207 21.5927 20.2306C21.5493 20.4106 21.522 20.5942 21.511 20.779C21.501 20.9901 21.5158 21.2016 21.5551 21.4092C21.6229 21.8018 21.7868 22.1715 22.0322 22.4853C22.2654 22.7832 22.5811 23.0059 22.9398 23.1258C23.1912 23.2078 23.4534 23.2515 23.7178 23.2554C23.8277 23.2556 23.9375 23.2461 24.0458 23.2269C24.4421 23.1459 24.8041 22.9455 25.083 22.6526C25.2273 22.5016 25.3487 22.3304 25.4435 22.1443C25.5406 21.9735 25.6201 21.7932 25.6807 21.6062ZM30.9939 23.2178C30.9954 23.2178 30.9965 23.219 30.9965 23.2204C30.9966 23.5917 31.0043 23.9642 30.9965 24.3355V24.3432C30.9849 24.6168 30.9512 24.8878 30.9278 25.1601C30.9188 25.2664 30.9097 25.3727 30.9019 25.4777C30.9019 25.5247 30.8816 25.5693 30.8464 25.6004C30.6614 25.7644 30.4815 25.9333 30.2834 26.0819C30.0086 26.2842 29.7285 26.4825 29.442 26.6666C29.1555 26.8508 28.856 27.0388 28.5539 27.2073C28.2518 27.3759 27.9691 27.5211 27.6722 27.6676C27.352 27.8271 27.0239 27.9567 26.6842 28.0877L26.316 28.2277C26.2272 28.2627 26.1363 28.2922 26.0438 28.3158L25.7054 28.3911L25.5715 28.4196C25.5674 28.4204 25.5632 28.4205 25.5591 28.4202C25.5447 28.4192 25.5306 28.413 25.5231 28.4008C25.5039 28.3695 25.4849 28.3375 25.4668 28.3055C25.351 28.0946 25.2343 27.8841 25.1167 27.6741C24.9948 27.4511 24.8769 27.2255 24.7602 26.9999C24.7438 26.9691 24.7586 26.9311 24.7913 26.9191C24.8946 26.8813 24.997 26.8408 25.0986 26.7976C25.1622 26.7728 25.2175 26.7295 25.2794 26.7007C25.5587 26.571 25.8255 26.4165 26.1008 26.2777C26.1874 26.2405 26.2638 26.1831 26.3238 26.1104C26.3676 26.0421 26.3909 25.9627 26.3909 25.8816C26.3909 25.8005 26.3676 25.721 26.3238 25.6528C26.2512 25.5231 26.1669 25.3934 26.0839 25.2742C26.0344 25.1965 25.9617 25.1351 25.9078 25.0603C25.9 25.0494 25.8921 25.0386 25.8843 25.0278C25.8657 24.9938 25.8411 24.9635 25.8117 24.9384C25.8022 24.9306 25.7935 24.9219 25.785 24.913C25.7438 24.8697 25.693 24.8364 25.6366 24.8158C25.5744 24.7931 25.5075 24.7866 25.4422 24.797C25.3421 24.8166 25.244 24.8452 25.1491 24.8826C24.9858 24.9358 24.8172 24.9747 24.6526 25.0278C24.3933 25.1095 24.1534 25.208 23.8993 25.2871C23.6451 25.3662 23.3716 25.4583 23.1032 25.527C22.9735 25.5594 22.8361 25.5866 22.7026 25.6139C22.5483 25.6437 22.3953 25.6839 22.2423 25.715C21.9934 25.7643 21.7418 25.8057 21.489 25.833C21.1143 25.868 20.737 25.8796 20.361 25.9082C19.9797 25.9462 19.5967 25.9648 19.2136 25.9639C18.4698 25.9394 17.7282 25.8706 16.9926 25.7578C16.7683 25.7202 16.5466 25.6735 16.3249 25.6281C16.1032 25.5827 15.8905 25.5425 15.6766 25.4816C15.6286 25.466 15.5819 25.4479 15.5353 25.4285L15.3045 25.3247C15.1748 25.2638 15.0452 25.1951 14.9155 25.1445C14.8863 25.133 14.8572 25.121 14.8281 25.1087C14.6569 25.0366 14.4929 24.9039 14.3074 24.915C14.2462 24.9157 14.1859 24.9303 14.1311 24.9578C14.0452 25.0058 13.964 25.0618 13.8887 25.1251C13.7512 25.2379 13.619 25.3597 13.4932 25.4842C13.4357 25.5358 13.3941 25.6027 13.3729 25.677C13.3518 25.7514 13.3522 25.8301 13.3739 25.9043C13.4264 26.0248 13.5074 26.1307 13.6099 26.2129C13.7182 26.3073 13.836 26.3902 13.9613 26.4605C14.0728 26.524 14.183 26.5902 14.2997 26.6472C14.5058 26.747 14.712 26.8456 14.9155 26.9506C14.9701 26.9789 14.988 27.0485 14.953 27.0992C14.8856 27.1967 14.8152 27.2933 14.7418 27.3862C14.6026 27.5652 14.4678 27.7471 14.3373 27.9321C14.2269 28.087 14.031 28.1537 13.8519 28.0895C13.6469 28.016 13.4447 27.935 13.2456 27.8465C13.0874 27.7726 12.9292 27.6961 12.7685 27.6287C12.6284 27.5703 12.4897 27.512 12.351 27.4498C12.1474 27.3564 11.9439 27.2618 11.7416 27.1632C11.5108 27.0517 11.2865 26.9273 11.0557 26.8158C10.8249 26.7042 10.5799 26.5902 10.3478 26.4631C10.1507 26.3555 9.95884 26.2479 9.76436 26.1312L9.78122 26.1428C9.77521 26.1382 9.76868 26.1343 9.76177 26.1312C9.60489 26.0339 9.45449 25.9302 9.3015 25.8278C9.25736 25.7971 9.21251 25.7671 9.16695 25.7378C9.13754 25.7189 9.12231 25.6849 9.11868 25.6502C9.0784 25.4887 9.04766 25.3251 9.02663 25.1601C9.00264 24.8447 8.99485 24.5284 9.00329 24.2123C9.00329 23.8233 9.00329 23.4344 9.02144 23.0454C9.03959 22.6564 9.06682 22.2519 9.09016 21.8552C9.10183 21.6438 9.11609 21.4338 9.14332 21.2251C9.17055 21.0163 9.20426 20.8089 9.23797 20.6027C9.23921 20.5907 9.23901 20.5785 9.24107 20.5666C9.30124 20.22 9.36905 19.8759 9.4519 19.5331C9.60878 18.8407 9.76825 18.151 9.97051 17.4716C10.0703 17.1565 10.1857 16.8453 10.3011 16.5355C10.4165 16.2256 10.5345 15.8989 10.6719 15.5877C10.751 15.4165 10.8379 15.2493 10.9209 15.0781C11.0039 14.907 11.0985 14.7073 11.1932 14.5245C11.3708 14.1809 11.5756 13.849 11.7766 13.5184C11.7809 13.5103 11.7856 13.5026 11.7909 13.4951C11.86 13.3853 11.93 13.2764 12.0009 13.1683C12.029 13.1257 12.0561 13.082 12.0848 13.039C12.0931 13.0266 12.1071 13.0192 12.122 13.0192C12.1243 13.0192 12.1265 13.0191 12.1287 13.0187C12.1736 13.0116 12.2165 12.9955 12.255 12.9713C12.4301 12.8766 12.6142 12.8014 12.7944 12.712C13.0044 12.6134 13.2158 12.5162 13.431 12.4293C13.711 12.3217 13.9976 12.2283 14.2867 12.1467C14.5758 12.065 14.9052 11.9755 15.2163 11.8977L15.9113 11.7383C16.0487 11.7084 16.1848 11.6812 16.3236 11.6579C16.3693 11.6514 16.4194 11.6649 16.4441 11.7039C16.5297 11.8389 16.6237 11.968 16.7035 12.1065L16.8033 12.2984C16.8381 12.3743 16.8869 12.4429 16.9472 12.5006C17.0009 12.5472 17.055 12.5959 17.1073 12.6441C17.125 12.6604 17.1444 12.675 17.1651 12.6875C17.2173 12.719 17.2766 12.7368 17.3375 12.7392H17.3725C17.4359 12.7374 17.4991 12.7318 17.5618 12.7223C17.7225 12.7055 17.8833 12.6795 18.0454 12.6614C18.3047 12.6368 18.564 12.6212 18.8233 12.6069C19.0826 12.5927 19.3484 12.5836 19.6116 12.5888L20.4129 12.6134H20.4621L20.7759 12.6225C20.9704 12.6316 21.1649 12.6458 21.3606 12.6471C21.4903 12.6471 21.6109 12.6471 21.7366 12.6471C21.9143 12.6471 22.0932 12.6549 22.2708 12.6471C22.2823 12.647 22.2938 12.6463 22.3052 12.6451C22.4414 12.63 22.5793 12.5682 22.6892 12.4863C22.7458 12.444 22.7899 12.3871 22.8167 12.3217C22.8342 12.2821 22.8541 12.2435 22.8763 12.2063C22.977 12.0353 23.0865 11.8695 23.2043 11.7097C23.2636 11.6307 23.3659 11.5915 23.4628 11.611C23.5649 11.6316 23.6669 11.6534 23.7683 11.6747C24.0017 11.724 24.2325 11.7772 24.462 11.8446C24.6616 11.9068 24.86 11.9721 25.0571 12.0404C25.271 12.1143 25.4875 12.1856 25.6976 12.2698C26.1319 12.4436 26.5714 12.6005 26.9941 12.7885L27.4829 13.0179C27.5146 13.0334 27.5467 13.0474 27.5788 13.0609C27.6319 13.0832 27.6808 13.1148 27.7189 13.158C27.8045 13.2513 27.89 13.3447 27.9665 13.4458C28.0664 13.5845 28.1558 13.7284 28.2466 13.8724C28.3516 14.0409 28.4553 14.2108 28.5539 14.391C28.6835 14.6321 28.8132 14.8746 28.9428 15.1209C29.053 15.3413 29.1503 15.5695 29.2423 15.799C29.3344 16.0285 29.4096 16.2619 29.49 16.4953C29.5794 16.7546 29.6754 17.0139 29.7765 17.2732C29.7791 17.2782 29.781 17.2835 29.7822 17.289C29.7828 17.2914 29.783 17.2939 29.783 17.2964C29.783 17.3016 29.7839 17.3068 29.7858 17.3117C29.9012 17.6193 29.9951 17.9344 30.0942 18.2482C30.194 18.5646 30.286 18.8615 30.3651 19.1726C30.4818 19.6679 30.5765 20.1671 30.6828 20.6637C30.7937 21.1447 30.8803 21.6311 30.9421 22.121C30.9835 22.4793 30.99 22.8466 30.9913 23.2153C30.9914 23.2167 30.9925 23.2178 30.9939 23.2178Z" fill="#E6F8EF" stroke="#142528" stroke-width="1.22805"/>
</svg>
