<svg width="25" height="24" viewBox="0 0 25 24" fill="none" xmlns="http://www.w3.org/2000/svg">
<path d="M12.5 24C19.1274 24 24.5 18.6274 24.5 12C24.5 5.37258 19.1274 0 12.5 0C5.87258 0 0.5 5.37258 0.5 12C0.5 18.6274 5.87258 24 12.5 24Z" fill="white"/>
<path fill-rule="evenodd" clip-rule="evenodd" d="M13.4 9.675L16.1 8.1V11.25L13.4 9.675ZM16.1 16.425L12.5 18.525L8.9 16.425V12.75L12.5 14.85L16.1 12.75V16.425ZM8.9 8.1L11.6 9.675L8.9 11.25V8.1ZM12.95 10.425L15.65 12L12.95 13.575V10.425ZM12.05 13.575L9.35 12L12.05 10.425V13.575ZM15.65 7.35L12.5 9.15L9.35 7.35L12.5 5.475L15.65 7.35ZM8 7.05V16.875L12.5 19.425L17 16.875V7.05L12.5 4.5L8 7.05Z" fill="#1B3034"/>
</svg>
