<svg width="52" height="51" viewBox="0 0 52 51" fill="none" xmlns="http://www.w3.org/2000/svg">
<path d="M26.0004 0.398438C11.8628 0.398438 0.400391 11.8608 0.400391 25.9984C0.400391 37.9942 8.66066 48.0315 19.7967 50.8091C19.6772 50.4635 19.6004 50.0624 19.6004 49.5654V45.1899C18.5615 45.1899 16.8207 45.1899 16.3833 45.1899C14.6319 45.1899 13.0745 44.4368 12.3193 43.0374C11.4809 41.4822 11.3359 39.1035 9.25799 37.6486C8.64146 37.1643 9.11079 36.6118 9.82119 36.6864C11.1332 37.0576 12.2212 37.9579 13.2452 39.2934C14.2649 40.631 14.7449 40.9339 16.65 40.9339C17.5737 40.9339 18.9561 40.8806 20.2575 40.6758C20.9572 38.8987 22.1668 37.2624 23.6452 36.4902C15.1204 35.6134 11.0521 31.3723 11.0521 25.6144C11.0521 23.1355 12.1081 20.7376 13.9023 18.7174C13.3135 16.712 12.5732 12.6224 14.1284 11.0651C17.9641 11.0651 20.2831 13.5526 20.8399 14.2246C22.7513 13.5696 24.8505 13.1984 27.0564 13.1984C29.2665 13.1984 31.3743 13.5696 33.29 14.2288C33.8404 13.5611 36.1615 11.0651 40.0057 11.0651C41.5673 12.6246 40.8185 16.7312 40.2233 18.7323C42.0068 20.7483 43.0564 23.1398 43.0564 25.6144C43.0564 31.368 38.9945 35.607 30.4825 36.488C32.8249 37.7104 34.5337 41.1451 34.5337 43.7328V49.5654C34.5337 49.7872 34.4847 49.9472 34.4591 50.1371C44.4345 46.6406 51.6004 37.1686 51.6004 25.9984C51.6004 11.8608 40.138 0.398438 26.0004 0.398438Z" fill="#142528"/>
</svg>
