<svg width="24" height="24" viewBox="0 0 24 24" fill="none" xmlns="http://www.w3.org/2000/svg">
<path d="M12 24C18.6274 24 24 18.6274 24 12C24 5.37258 18.6274 0 12 0C5.37258 0 0 5.37258 0 12C0 18.6274 5.37258 24 12 24Z" fill="#2FA8AF"/>
<path d="M7.00149 11.9902C7.00149 10.7835 7.00149 9.57682 7.00149 8.37015C7.00149 7.63132 7.20622 7.21788 7.70357 7.07227C8.22223 6.92035 8.75774 6.97397 9.24456 7.56534C11.1916 9.93086 13.1678 12.2725 15.1365 14.6198C15.2115 14.7095 15.2646 14.8903 15.4175 14.8283C15.562 14.7697 15.4822 14.6007 15.4825 14.4847C15.488 12.7908 15.4872 11.0968 15.4835 9.40283C15.4835 9.29585 15.5475 9.14525 15.4088 9.09215C15.3001 9.05036 15.228 9.17731 15.1525 9.24197C14.5615 9.74767 13.9754 10.2591 13.386 10.7667C13.276 10.8613 13.1665 11.0148 13.0002 10.8765C12.8321 10.7367 12.9621 10.609 13.0455 10.4852C13.6933 9.5232 14.341 8.56123 14.9886 7.59899C15.332 7.08856 15.7599 6.90353 16.2569 7.05176C16.7324 7.19343 16.9982 7.6074 16.999 8.22086C17.0009 9.61309 16.9995 11.0056 16.9995 12.3978C16.9995 13.5117 17.0003 14.6256 16.9993 15.7395C16.9988 16.3532 16.7672 16.7475 16.314 16.9154C15.782 17.1126 15.2209 16.9604 14.8417 16.5073C12.8529 14.1312 10.8656 11.7536 8.87747 9.37681C8.82537 9.31451 8.77879 9.24513 8.71721 9.19361C8.61248 9.10609 8.52459 9.10135 8.51643 9.27246C8.51248 9.35341 8.51485 9.43489 8.51485 9.51611C8.51485 11.187 8.51327 12.8578 8.51775 14.5284C8.51801 14.6482 8.44512 14.8196 8.57643 14.8798C8.72616 14.9484 8.81326 14.7723 8.91247 14.6879C9.47824 14.2064 10.0364 13.716 10.6006 13.2323C10.7161 13.1332 10.8282 12.9564 11.01 13.1217C11.1753 13.272 11.0266 13.3995 10.9487 13.5159C10.2903 14.4987 9.62902 15.4796 8.96431 16.4578C8.65985 16.906 8.23513 17.07 7.76356 16.9359C7.29674 16.8035 7.00622 16.4058 7.00359 15.8533C6.99701 14.5654 7.00149 13.2775 7.00149 11.9897V11.9902Z" fill="white"/>
</svg>
