<svg width="25" height="24" viewBox="0 0 25 24" fill="none" xmlns="http://www.w3.org/2000/svg">
<path d="M12.5 24C19.1274 24 24.5 18.6274 24.5 12C24.5 5.37258 19.1274 0 12.5 0C5.87258 0 0.5 5.37258 0.5 12C0.5 18.6274 5.87258 24 12.5 24Z" fill="white"/>
<path d="M7.50149 11.9902C7.50149 10.7835 7.50149 9.57682 7.50149 8.37015C7.50149 7.63132 7.70622 7.21788 8.20357 7.07227C8.72223 6.92035 9.25774 6.97397 9.74456 7.56534C11.6916 9.93086 13.6678 12.2725 15.6365 14.6198C15.7115 14.7095 15.7646 14.8903 15.9175 14.8283C16.062 14.7697 15.9822 14.6007 15.9825 14.4847C15.988 12.7908 15.9872 11.0968 15.9835 9.40283C15.9835 9.29585 16.0475 9.14525 15.9088 9.09215C15.8001 9.05036 15.728 9.17731 15.6525 9.24197C15.0615 9.74767 14.4754 10.2591 13.886 10.7667C13.776 10.8613 13.6665 11.0148 13.5002 10.8765C13.3321 10.7367 13.4621 10.609 13.5455 10.4852C14.1933 9.5232 14.841 8.56123 15.4886 7.59899C15.832 7.08856 16.2599 6.90353 16.7569 7.05176C17.2324 7.19343 17.4982 7.6074 17.499 8.22086C17.5009 9.61309 17.4995 11.0056 17.4995 12.3978C17.4995 13.5117 17.5003 14.6256 17.4993 15.7395C17.4988 16.3532 17.2672 16.7475 16.814 16.9154C16.282 17.1126 15.7209 16.9604 15.3417 16.5073C13.3529 14.1312 11.3656 11.7536 9.37747 9.37681C9.32537 9.31451 9.27879 9.24513 9.21721 9.19361C9.11248 9.10609 9.02459 9.10135 9.01643 9.27246C9.01248 9.35341 9.01485 9.43489 9.01485 9.51611C9.01485 11.187 9.01327 12.8578 9.01775 14.5284C9.01801 14.6482 8.94512 14.8196 9.07643 14.8798C9.22616 14.9484 9.31326 14.7723 9.41247 14.6879C9.97824 14.2064 10.5364 13.716 11.1006 13.2323C11.2161 13.1332 11.3282 12.9564 11.51 13.1217C11.6753 13.272 11.5266 13.3995 11.4487 13.5159C10.7903 14.4987 10.129 15.4796 9.46431 16.4578C9.15985 16.906 8.73513 17.07 8.26356 16.9359C7.79674 16.8035 7.50622 16.4058 7.50359 15.8533C7.49701 14.5654 7.50149 13.2775 7.50149 11.9897V11.9902Z" fill="#1B3034"/>
</svg>
