<svg width="25" height="24" viewBox="0 0 25 24" fill="none" xmlns="http://www.w3.org/2000/svg">
<rect x="0.5" width="24" height="24" rx="12" fill="white"/>
<path d="M16.2034 9.66766C15.9403 9.52522 15.6019 9.52522 15.3011 9.66766L13.1956 10.8427L11.7669 11.5905L9.699 12.7656C9.43582 12.908 9.09744 12.908 8.79665 12.7656L7.17994 11.8398C6.91676 11.6973 6.72877 11.4125 6.72877 11.092V9.31157C6.72877 9.02671 6.87916 8.74184 7.17994 8.5638L8.79665 7.67359C9.05984 7.53116 9.39822 7.53116 9.699 7.67359L11.3157 8.59941C11.5789 8.74184 11.7669 9.02671 11.7669 9.34718V10.5223L13.1956 9.73887V8.52819C13.1956 8.24332 13.0452 7.95846 12.7444 7.78042L9.7366 6.10682C9.47342 5.96439 9.13504 5.96439 8.83425 6.10682L5.75122 7.81602C5.45044 7.95846 5.30005 8.24332 5.30005 8.52819V11.8754C5.30005 12.1602 5.45044 12.4451 5.75122 12.6231L8.79665 14.2967C9.05984 14.4392 9.39822 14.4392 9.699 14.2967L11.7669 13.1573L13.1956 12.3739L15.2635 11.2344C15.5267 11.092 15.8651 11.092 16.1658 11.2344L17.7826 12.1246C18.0457 12.2671 18.2337 12.5519 18.2337 12.8724V14.6528C18.2337 14.9377 18.0833 15.2226 17.7826 15.4006L16.2034 16.2908C15.9403 16.4332 15.6019 16.4332 15.3011 16.2908L13.6844 15.4006C13.4212 15.2582 13.2332 14.9733 13.2332 14.6528V13.5134L11.8045 14.2967V15.4718C11.8045 15.7567 11.9549 16.0415 12.2557 16.2196L15.3011 17.8932C15.5643 18.0356 15.9027 18.0356 16.2034 17.8932L19.2489 16.2196C19.5121 16.0772 19.7 15.7923 19.7 15.4718V12.089C19.7 11.8042 19.5497 11.5193 19.2489 11.3412L16.2034 9.66766Z" fill="#1B3034"/>
</svg>
