<svg width="24" height="24" viewBox="0 0 24 24" fill="none" xmlns="http://www.w3.org/2000/svg">
<rect width="24" height="24" rx="12" fill="#7630EC"/>
<path d="M15.7034 9.66766C15.4403 9.52522 15.1019 9.52522 14.8011 9.66766L12.6956 10.8427L11.2669 11.5905L9.199 12.7656C8.93582 12.908 8.59744 12.908 8.29665 12.7656L6.67994 11.8398C6.41676 11.6973 6.22877 11.4125 6.22877 11.092V9.31157C6.22877 9.02671 6.37916 8.74184 6.67994 8.5638L8.29665 7.67359C8.55984 7.53116 8.89822 7.53116 9.199 7.67359L10.8157 8.59941C11.0789 8.74184 11.2669 9.02671 11.2669 9.34718V10.5223L12.6956 9.73887V8.52819C12.6956 8.24332 12.5452 7.95846 12.2444 7.78042L9.2366 6.10682C8.97342 5.96439 8.63504 5.96439 8.33425 6.10682L5.25122 7.81602C4.95044 7.95846 4.80005 8.24332 4.80005 8.52819V11.8754C4.80005 12.1602 4.95044 12.4451 5.25122 12.6231L8.29665 14.2967C8.55984 14.4392 8.89822 14.4392 9.199 14.2967L11.2669 13.1573L12.6956 12.3739L14.7635 11.2344C15.0267 11.092 15.3651 11.092 15.6658 11.2344L17.2826 12.1246C17.5457 12.2671 17.7337 12.5519 17.7337 12.8724V14.6528C17.7337 14.9377 17.5833 15.2226 17.2826 15.4006L15.7034 16.2908C15.4403 16.4332 15.1019 16.4332 14.8011 16.2908L13.1844 15.4006C12.9212 15.2582 12.7332 14.9733 12.7332 14.6528V13.5134L11.3045 14.2967V15.4718C11.3045 15.7567 11.4549 16.0415 11.7557 16.2196L14.8011 17.8932C15.0643 18.0356 15.4027 18.0356 15.7034 17.8932L18.7489 16.2196C19.0121 16.0772 19.2 15.7923 19.2 15.4718V12.089C19.2 11.8042 19.0497 11.5193 18.7489 11.3412L15.7034 9.66766Z" fill="white"/>
</svg>
