<svg width="40" height="40" viewBox="0 0 40 40" fill="none" xmlns="http://www.w3.org/2000/svg">
<rect width="40" height="40" rx="20" fill="#E6F8EF"/>
<mask id="path-2-outside-1_7249_114284" maskUnits="userSpaceOnUse" x="9" y="11" width="22" height="19" fill="black">
<rect fill="white" x="9" y="11" width="22" height="19"/>
<path fill-rule="evenodd" clip-rule="evenodd" d="M21.2554 13.0172C21.1272 13.0562 21.0081 13.1501 20.9545 13.2545C20.9422 13.2785 20.6355 14.2349 20.2729 15.3797C19.9103 16.5245 19.6047 17.4719 19.5939 17.485L19.5741 17.5089L19.3466 17.5225C17.3954 17.6398 15.7262 18.1332 14.3639 18.9952C14.2432 19.0716 14.1353 19.134 14.1242 19.134C14.113 19.134 14.0432 19.0808 13.969 19.0157C13.6418 18.7287 13.341 18.5933 12.9258 18.546L12.7614 18.5272L12.5889 18.5468C12.4941 18.5576 12.3619 18.5803 12.295 18.5972L12.1735 18.6279L11.971 18.7282L11.7686 18.8284L11.6181 18.9559L11.4676 19.0834L11.3596 19.2251L11.2516 19.3669L11.1719 19.5289L11.0921 19.6909L11.046 19.863L11 20.0352L11.0016 20.3085L11.0032 20.5819L11.0469 20.7439L11.0906 20.9059L11.1685 21.0679L11.2464 21.2299L11.342 21.3562C11.3945 21.4257 11.5013 21.5407 11.5792 21.6118L11.7208 21.7411L11.8414 21.8095C11.9077 21.8471 11.977 21.8881 11.9954 21.9005L12.0289 21.9231L11.99 22.1739L11.9511 22.4247L11.9527 22.7588L11.9542 23.0929L11.9901 23.2946C12.1427 24.1517 12.5481 24.8879 13.2561 25.5938C13.7826 26.1187 14.3826 26.5357 15.1502 26.9103C16.2768 27.4601 17.4351 27.7718 18.8863 27.9158L19.2406 27.951H19.9595H20.6784L21.0327 27.9155C21.5118 27.8676 21.9138 27.8104 22.2781 27.7383C24.2676 27.3442 25.9468 26.4628 26.9614 25.2799L27.1525 25.0572L27.308 24.8243C27.6672 24.2866 27.8705 23.7586 27.9505 23.1551L27.983 22.9107L27.9701 22.6069L27.9572 22.3032L27.9293 22.1513L27.9015 21.9994L27.9204 21.9639L27.9393 21.9285L28.0449 21.8755C28.2827 21.756 28.5516 21.5196 28.7045 21.2956C28.8016 21.1532 28.9034 20.9273 28.953 20.7439L28.9968 20.5819L28.9984 20.3085L29 20.0352L28.954 19.863L28.9079 19.6909L28.8281 19.5289L28.7484 19.3669L28.6404 19.2251L28.5324 19.0834L28.3819 18.9559L28.2314 18.8284L28.029 18.7282L27.8265 18.6279L27.705 18.5972C27.6381 18.5803 27.5059 18.5576 27.4111 18.5468L27.2386 18.5272L27.0742 18.546C26.6463 18.5948 26.3219 18.7463 25.988 19.0532L25.8505 19.1796L25.745 19.1129C25.3888 18.8877 25.1819 18.7665 24.9308 18.6362C23.7638 18.0304 22.3049 17.6407 20.8201 17.5381L20.6176 17.5241L20.6116 17.4726L20.6056 17.421L21.1341 15.7513L21.6626 14.0816L21.6959 14.0562L21.7292 14.0308L21.7607 14.0403C21.9032 14.0834 24.8345 14.76 24.8786 14.76H24.9359L24.9553 14.7853C24.966 14.7993 24.9914 14.8739 25.0117 14.9512C25.0847 15.2282 25.2457 15.4786 25.4702 15.6641L25.5788 15.7538L25.7349 15.8325L25.8911 15.9112L26.0459 15.9456L26.2007 15.98L26.4162 15.9707L26.6317 15.9613L26.8062 15.9006L26.9808 15.8399L27.1244 15.7444L27.2681 15.6489L27.3752 15.5303C27.5118 15.3789 27.6037 15.226 27.6663 15.0461L27.7159 14.9036L27.7359 14.7457L27.756 14.5879L27.7342 14.4259L27.7123 14.2639L27.6645 14.1255C27.6039 13.95 27.5112 13.7962 27.3752 13.6455L27.2681 13.5269L27.1244 13.4314L26.9808 13.3359L26.8062 13.275L26.6317 13.2142L26.409 13.2055L26.1862 13.1968L26.05 13.2287C25.8912 13.266 25.689 13.3539 25.5648 13.4396C25.4824 13.4965 25.3226 13.6527 25.1896 13.8063L25.1299 13.8753L23.266 13.4368C22.2409 13.1956 21.3805 12.9991 21.3541 13C21.3277 13.001 21.2833 13.0087 21.2554 13.0172ZM17.4561 20.4399L17.5952 20.4694L17.7465 20.5442L17.8978 20.6189L18.0528 20.765L18.2079 20.911L18.2844 21.0401L18.3608 21.1692L18.4131 21.3312L18.4654 21.4932L18.468 21.6957L18.4706 21.8982L18.4435 22.0095C18.4286 22.0708 18.3798 22.1979 18.335 22.2919L18.2536 22.4629L18.089 22.6267L17.9244 22.7905L17.7725 22.8649L17.6207 22.9393L17.4891 22.9703L17.3574 23.0012L17.1748 23.0015L16.9921 23.0018L16.8408 22.9598C16.66 22.9097 16.5072 22.8312 16.349 22.7071L16.2323 22.6155L16.1389 22.4897C16.0875 22.4205 16.0201 22.3084 15.9889 22.2406L15.9324 22.1173L15.8981 21.9481L15.8638 21.7789L15.8761 21.6335L15.8884 21.4881L15.9401 21.3243L15.9919 21.1605L16.0933 21.0088L16.1947 20.8572L16.3205 20.7434L16.4462 20.6295L16.6082 20.5495L16.7702 20.4695L16.9018 20.4413L17.0334 20.413L17.1752 20.4117L17.3169 20.4105L17.4561 20.4399ZM23.1046 20.4397L23.2425 20.469L23.3881 20.5395L23.5335 20.6101L23.6348 20.6941C23.6905 20.7403 23.7752 20.8251 23.823 20.8825L23.91 20.9869L23.9905 21.1489L24.0709 21.3109L24.1025 21.4729L24.1342 21.6349L24.1226 21.7976L24.1111 21.9602L24.0786 22.0709C24.0607 22.1318 24.0131 22.2454 23.9729 22.3234L23.8998 22.4652L23.7471 22.6188L23.5943 22.7723L23.4606 22.8466L23.327 22.9209L23.1688 22.9613L23.0107 23.0018H22.8349H22.6592L22.5028 22.9618L22.3464 22.9218L22.2312 22.8603C22.1679 22.8265 22.0642 22.7576 22.0008 22.7072L21.8856 22.6157L21.7903 22.4898C21.7378 22.4205 21.6695 22.3084 21.6385 22.2406L21.582 22.1173L21.5479 21.9488L21.5137 21.7802L21.5274 21.6294L21.5411 21.4785L21.5904 21.3222L21.6398 21.166L21.7193 21.0429C21.9224 20.7287 22.2222 20.5139 22.5616 20.4396L22.6831 20.413L22.8248 20.4117L22.9666 20.4105L23.1046 20.4397ZM17.4163 24.7108L17.484 24.7391L17.5954 24.84C18.0464 25.2484 18.638 25.4387 19.6242 25.4925L20 25.513L20.3758 25.4925C21.362 25.4387 21.9536 25.2484 22.4046 24.84L22.516 24.7391L22.5837 24.7108L22.6514 24.6825L22.7685 24.683L22.8856 24.6834L22.9666 24.7203L23.0476 24.7572L23.1221 24.8399L23.1967 24.9227L23.2182 25C23.23 25.0426 23.2397 25.1143 23.2398 25.1595L23.2399 25.2416L23.1867 25.3485L23.1334 25.4553L22.9791 25.5871C22.2992 26.1676 21.3362 26.4446 20 26.444C18.6582 26.4435 17.7018 26.1683 17.0209 25.5871L16.8666 25.4553L16.8133 25.3485L16.7601 25.2416L16.7602 25.1595C16.7603 25.1143 16.77 25.0426 16.7818 25L16.8033 24.9227L16.8779 24.8399L16.9524 24.7572L17.0334 24.7203L17.1144 24.6834L17.2315 24.683L17.3486 24.6825L17.4163 24.7108Z"/>
</mask>
<path fill-rule="evenodd" clip-rule="evenodd" d="M21.2554 13.0172C21.1272 13.0562 21.0081 13.1501 20.9545 13.2545C20.9422 13.2785 20.6355 14.2349 20.2729 15.3797C19.9103 16.5245 19.6047 17.4719 19.5939 17.485L19.5741 17.5089L19.3466 17.5225C17.3954 17.6398 15.7262 18.1332 14.3639 18.9952C14.2432 19.0716 14.1353 19.134 14.1242 19.134C14.113 19.134 14.0432 19.0808 13.969 19.0157C13.6418 18.7287 13.341 18.5933 12.9258 18.546L12.7614 18.5272L12.5889 18.5468C12.4941 18.5576 12.3619 18.5803 12.295 18.5972L12.1735 18.6279L11.971 18.7282L11.7686 18.8284L11.6181 18.9559L11.4676 19.0834L11.3596 19.2251L11.2516 19.3669L11.1719 19.5289L11.0921 19.6909L11.046 19.863L11 20.0352L11.0016 20.3085L11.0032 20.5819L11.0469 20.7439L11.0906 20.9059L11.1685 21.0679L11.2464 21.2299L11.342 21.3562C11.3945 21.4257 11.5013 21.5407 11.5792 21.6118L11.7208 21.7411L11.8414 21.8095C11.9077 21.8471 11.977 21.8881 11.9954 21.9005L12.0289 21.9231L11.99 22.1739L11.9511 22.4247L11.9527 22.7588L11.9542 23.0929L11.9901 23.2946C12.1427 24.1517 12.5481 24.8879 13.2561 25.5938C13.7826 26.1187 14.3826 26.5357 15.1502 26.9103C16.2768 27.4601 17.4351 27.7718 18.8863 27.9158L19.2406 27.951H19.9595H20.6784L21.0327 27.9155C21.5118 27.8676 21.9138 27.8104 22.2781 27.7383C24.2676 27.3442 25.9468 26.4628 26.9614 25.2799L27.1525 25.0572L27.308 24.8243C27.6672 24.2866 27.8705 23.7586 27.9505 23.1551L27.983 22.9107L27.9701 22.6069L27.9572 22.3032L27.9293 22.1513L27.9015 21.9994L27.9204 21.9639L27.9393 21.9285L28.0449 21.8755C28.2827 21.756 28.5516 21.5196 28.7045 21.2956C28.8016 21.1532 28.9034 20.9273 28.953 20.7439L28.9968 20.5819L28.9984 20.3085L29 20.0352L28.954 19.863L28.9079 19.6909L28.8281 19.5289L28.7484 19.3669L28.6404 19.2251L28.5324 19.0834L28.3819 18.9559L28.2314 18.8284L28.029 18.7282L27.8265 18.6279L27.705 18.5972C27.6381 18.5803 27.5059 18.5576 27.4111 18.5468L27.2386 18.5272L27.0742 18.546C26.6463 18.5948 26.3219 18.7463 25.988 19.0532L25.8505 19.1796L25.745 19.1129C25.3888 18.8877 25.1819 18.7665 24.9308 18.6362C23.7638 18.0304 22.3049 17.6407 20.8201 17.5381L20.6176 17.5241L20.6116 17.4726L20.6056 17.421L21.1341 15.7513L21.6626 14.0816L21.6959 14.0562L21.7292 14.0308L21.7607 14.0403C21.9032 14.0834 24.8345 14.76 24.8786 14.76H24.9359L24.9553 14.7853C24.966 14.7993 24.9914 14.8739 25.0117 14.9512C25.0847 15.2282 25.2457 15.4786 25.4702 15.6641L25.5788 15.7538L25.7349 15.8325L25.8911 15.9112L26.0459 15.9456L26.2007 15.98L26.4162 15.9707L26.6317 15.9613L26.8062 15.9006L26.9808 15.8399L27.1244 15.7444L27.2681 15.6489L27.3752 15.5303C27.5118 15.3789 27.6037 15.226 27.6663 15.0461L27.7159 14.9036L27.7359 14.7457L27.756 14.5879L27.7342 14.4259L27.7123 14.2639L27.6645 14.1255C27.6039 13.95 27.5112 13.7962 27.3752 13.6455L27.2681 13.5269L27.1244 13.4314L26.9808 13.3359L26.8062 13.275L26.6317 13.2142L26.409 13.2055L26.1862 13.1968L26.05 13.2287C25.8912 13.266 25.689 13.3539 25.5648 13.4396C25.4824 13.4965 25.3226 13.6527 25.1896 13.8063L25.1299 13.8753L23.266 13.4368C22.2409 13.1956 21.3805 12.9991 21.3541 13C21.3277 13.001 21.2833 13.0087 21.2554 13.0172ZM17.4561 20.4399L17.5952 20.4694L17.7465 20.5442L17.8978 20.6189L18.0528 20.765L18.2079 20.911L18.2844 21.0401L18.3608 21.1692L18.4131 21.3312L18.4654 21.4932L18.468 21.6957L18.4706 21.8982L18.4435 22.0095C18.4286 22.0708 18.3798 22.1979 18.335 22.2919L18.2536 22.4629L18.089 22.6267L17.9244 22.7905L17.7725 22.8649L17.6207 22.9393L17.4891 22.9703L17.3574 23.0012L17.1748 23.0015L16.9921 23.0018L16.8408 22.9598C16.66 22.9097 16.5072 22.8312 16.349 22.7071L16.2323 22.6155L16.1389 22.4897C16.0875 22.4205 16.0201 22.3084 15.9889 22.2406L15.9324 22.1173L15.8981 21.9481L15.8638 21.7789L15.8761 21.6335L15.8884 21.4881L15.9401 21.3243L15.9919 21.1605L16.0933 21.0088L16.1947 20.8572L16.3205 20.7434L16.4462 20.6295L16.6082 20.5495L16.7702 20.4695L16.9018 20.4413L17.0334 20.413L17.1752 20.4117L17.3169 20.4105L17.4561 20.4399ZM23.1046 20.4397L23.2425 20.469L23.3881 20.5395L23.5335 20.6101L23.6348 20.6941C23.6905 20.7403 23.7752 20.8251 23.823 20.8825L23.91 20.9869L23.9905 21.1489L24.0709 21.3109L24.1025 21.4729L24.1342 21.6349L24.1226 21.7976L24.1111 21.9602L24.0786 22.0709C24.0607 22.1318 24.0131 22.2454 23.9729 22.3234L23.8998 22.4652L23.7471 22.6188L23.5943 22.7723L23.4606 22.8466L23.327 22.9209L23.1688 22.9613L23.0107 23.0018H22.8349H22.6592L22.5028 22.9618L22.3464 22.9218L22.2312 22.8603C22.1679 22.8265 22.0642 22.7576 22.0008 22.7072L21.8856 22.6157L21.7903 22.4898C21.7378 22.4205 21.6695 22.3084 21.6385 22.2406L21.582 22.1173L21.5479 21.9488L21.5137 21.7802L21.5274 21.6294L21.5411 21.4785L21.5904 21.3222L21.6398 21.166L21.7193 21.0429C21.9224 20.7287 22.2222 20.5139 22.5616 20.4396L22.6831 20.413L22.8248 20.4117L22.9666 20.4105L23.1046 20.4397ZM17.4163 24.7108L17.484 24.7391L17.5954 24.84C18.0464 25.2484 18.638 25.4387 19.6242 25.4925L20 25.513L20.3758 25.4925C21.362 25.4387 21.9536 25.2484 22.4046 24.84L22.516 24.7391L22.5837 24.7108L22.6514 24.6825L22.7685 24.683L22.8856 24.6834L22.9666 24.7203L23.0476 24.7572L23.1221 24.8399L23.1967 24.9227L23.2182 25C23.23 25.0426 23.2397 25.1143 23.2398 25.1595L23.2399 25.2416L23.1867 25.3485L23.1334 25.4553L22.9791 25.5871C22.2992 26.1676 21.3362 26.4446 20 26.444C18.6582 26.4435 17.7018 26.1683 17.0209 25.5871L16.8666 25.4553L16.8133 25.3485L16.7601 25.2416L16.7602 25.1595C16.7603 25.1143 16.77 25.0426 16.7818 25L16.8033 24.9227L16.8779 24.8399L16.9524 24.7572L17.0334 24.7203L17.1144 24.6834L17.2315 24.683L17.3486 24.6825L17.4163 24.7108Z" stroke="#323232" stroke-width="2.45458" mask="url(#path-2-outside-1_7249_114284)"/>
</svg>