<svg width="65" height="64" viewBox="0 0 65 64" fill="none" xmlns="http://www.w3.org/2000/svg">
<rect x="0.375" width="64" height="64.001" rx="32" fill="white"/>
<path fill-rule="evenodd" clip-rule="evenodd" d="M42.8773 13.5679C43.6148 13.6533 44.0822 14.4014 43.8358 15.1017L40.2292 25.3503C39.9072 26.2653 38.6699 26.402 38.1559 25.5794L37.3871 24.349L23.4673 33.047L22.0358 30.7561C19.7494 27.0971 20.8621 22.2774 24.5211 19.991L31.8157 15.4329L30.9702 14.0798C30.4561 13.2572 31.1214 12.2051 32.085 12.3168L42.8773 13.5679ZM28.2849 37.3322C23.2563 40.2355 21.5333 46.6656 24.4366 51.6942L38.5992 43.5174C42.3358 41.3601 43.616 36.5822 41.4587 32.8456L40.108 30.5061L28.2849 37.3322Z" fill="#07C166"/>
</svg>
