<svg width="25" height="24" viewBox="0 0 25 24" fill="none" xmlns="http://www.w3.org/2000/svg">
<path d="M12 24C18.6274 24 24 18.6274 24 12C24 5.37258 18.6274 0 12 0C5.37258 0 0 5.37258 0 12C0 18.6274 5.37258 24 12 24Z" fill="white"/>
<circle cx="12.373" cy="12.0256" r="7.25" fill="#E1E1E1"/>
<path d="M10.1671 19.0142C13.9392 20.0981 17.4966 17.5402 18.2951 16.2988C17.4517 16.6342 15.5491 16.9055 14.6853 15.307C13.8215 13.7085 14.9906 12.2265 15.6832 11.6853L5 12.5845C5.19154 14.4993 5.81665 17.7641 10.1671 19.0142Z" fill="url(#paint0_linear_2_1335)"/>
<path d="M14.2768 3.10232L14.2805 3.09401C14.3978 2.83402 14.4699 3.11941 14.4752 3.87423C14.4818 4.81775 13.5194 5.58838 12.44 6.09234C10.554 6.9729 9.95934 9.05933 10.8826 10.0267C12.8373 12.0747 14.4618 9.90373 16.4973 9.78079C17.9465 9.69325 19.2379 10.6091 19.8095 11.2322C19.873 11.3014 19.8065 11.4043 19.7142 11.3866C18.9603 11.2421 17.4828 11.1122 16.2377 11.4474C14.4618 11.9255 13.6421 13.7461 13.3279 14.2479C13.0783 14.6466 11.0879 17.4992 7.78199 16.42C4.47606 15.3408 4.40738 10.9826 6.0612 8.33273C7.74801 5.63001 11.6725 4.59513 12.9259 4.20327C13.9205 3.89235 14.125 3.43895 14.2768 3.10232Z" fill="url(#paint1_linear_2_1335)"/>
<defs>
<linearGradient id="paint0_linear_2_1335" x1="6.8639" y1="13.8441" x2="9.77622" y2="19.3892" gradientUnits="userSpaceOnUse">
<stop stop-color="#ECECEC"/>
<stop offset="1" stop-color="#797979"/>
</linearGradient>
<linearGradient id="paint1_linear_2_1335" x1="7.10116" y1="6.88571" x2="13.3708" y2="14.362" gradientUnits="userSpaceOnUse">
<stop stop-color="#ECECEC"/>
<stop offset="1" stop-color="#797979"/>
</linearGradient>
</defs>
</svg>
