<svg width="22" height="22" viewBox="0 0 22 22" fill="none" xmlns="http://www.w3.org/2000/svg">
<g clip-path="url(#clip0_4660_309312)">
<path d="M11 21C16.5228 21 21 16.5228 21 11C21 5.47715 16.5228 1 11 1C5.47715 1 1 5.47715 1 11C1 16.5228 5.47715 21 11 21Z" fill="white"/>
<circle cx="11.311" cy="11.0202" r="6.04167" fill="#F2E373"/>
<path d="M9.47265 16.8457C12.616 17.7489 15.5806 15.6174 16.246 14.5829C15.5432 14.8624 13.9577 15.0884 13.2378 13.7564C12.518 12.4243 13.4923 11.1893 14.0694 10.7383L5.16675 11.4876C5.32637 13.0833 5.84729 15.8039 9.47265 16.8457Z" fill="url(#paint0_linear_4660_309312)"/>
<path d="M12.8974 3.58526L12.9005 3.57835C12.9983 3.36168 13.0583 3.59951 13.0627 4.22852C13.0683 5.01479 12.2662 5.65699 11.3667 6.07695C9.79506 6.81075 9.29953 8.54944 10.0689 9.35557C11.6979 11.0622 13.0516 9.25311 14.7478 9.15065C15.9555 9.07771 17.0317 9.84092 17.508 10.3602C17.5609 10.4179 17.5055 10.5036 17.4286 10.4889C16.8003 10.3684 15.5691 10.2602 14.5315 10.5395C13.0516 10.9379 12.3685 12.4551 12.1067 12.8732C11.8986 13.2055 10.24 15.5827 7.48507 14.6833C4.73013 13.784 4.6729 10.1522 6.05108 7.94394C7.45676 5.69168 10.7271 4.82928 11.7717 4.50273C12.6005 4.24362 12.7709 3.86579 12.8974 3.58526Z" fill="url(#paint1_linear_4660_309312)"/>
</g>
<rect x="0.583333" y="0.583333" width="20.8333" height="20.8333" rx="10.4167" stroke="#AEDFCA" stroke-width="0.833333"/>
<defs>
<linearGradient id="paint0_linear_4660_309312" x1="9.75914" y1="12.5908" x2="12.7477" y2="16.6847" gradientUnits="userSpaceOnUse">
<stop stop-color="#F5C258"/>
<stop offset="1" stop-color="#DF3C34"/>
</linearGradient>
<linearGradient id="paint1_linear_4660_309312" x1="6.91771" y1="6.73809" x2="12.1424" y2="12.9684" gradientUnits="userSpaceOnUse">
<stop stop-color="#F6CC5A"/>
<stop offset="1" stop-color="#DE3633"/>
</linearGradient>
<clipPath id="clip0_4660_309312">
<rect x="1" y="1" width="20" height="20" rx="10" fill="white"/>
</clipPath>
</defs>
</svg>
