<svg width="40" height="40" viewBox="0 0 40 40" fill="none" xmlns="http://www.w3.org/2000/svg">
<rect width="40" height="40" rx="20" fill="#E6F8EF"/>
<path d="M27.95 17.3496C27.95 16.9354 27.6142 16.5996 27.2 16.5996C26.7858 16.5996 26.45 16.9354 26.45 17.3496H27.95ZM11.6057 24.1072C11.3613 23.7728 10.8921 23.6996 10.5576 23.944C10.2231 24.1883 10.15 24.6575 10.3943 24.992L11.6057 24.1072ZM10.8726 23.8105C10.4644 23.8809 10.1905 24.2688 10.2609 24.677C10.3313 25.0852 10.7192 25.3591 11.1274 25.2887L10.8726 23.8105ZM13.7 23.6496L13.9383 24.3607C14.1839 24.2785 14.3696 24.0753 14.4296 23.8233C14.4896 23.5714 14.4154 23.3063 14.2332 23.1222L13.7 23.6496ZM12.8 12.8496L13.4606 12.4945C13.338 12.2664 13.1064 12.1177 12.848 12.1011C12.5896 12.0846 12.3409 12.2025 12.1902 12.413L12.8 12.8496ZM18.2 17.3496L18.0229 18.0784C18.2422 18.1317 18.4739 18.0834 18.6537 17.9468C18.8334 17.8103 18.9421 17.6 18.9496 17.3744L18.2 17.3496ZM26.3 14.6496L25.6738 15.0624C25.8126 15.2729 26.0479 15.3996 26.3 15.3996V14.6496ZM29 14.6496L29.624 15.0656C29.7775 14.8355 29.7918 14.5396 29.6613 14.2957C29.5307 14.0518 29.2766 13.8996 29 13.8996V14.6496ZM26.576 16.9336C26.3462 17.2782 26.4393 17.7439 26.784 17.9736C27.1286 18.2034 27.5943 18.1103 27.824 17.7656L26.576 16.9336ZM26.45 17.3496C26.45 20.3616 25.5901 22.8706 24.0501 24.6159C22.5204 26.3495 20.2593 27.3996 17.3 27.3996V28.8996C20.6407 28.8996 23.3296 27.6997 25.1749 25.6083C27.0099 23.5286 27.95 20.6376 27.95 17.3496H26.45ZM17.3 27.3996C15.6446 27.3996 14.5374 26.9721 13.7046 26.3828C12.8489 25.7772 12.2377 24.9726 11.6057 24.1072L10.3943 24.992C11.0193 25.8476 11.7581 26.843 12.8382 27.6072C13.9411 28.3877 15.3554 28.8996 17.3 28.8996V27.3996ZM11.1274 25.2887C11.1512 25.2846 11.1696 25.2802 11.1759 25.2787C11.1846 25.2766 11.1916 25.2748 11.1958 25.2736C11.2042 25.2714 11.211 25.2694 11.2146 25.2683C11.2221 25.2661 11.229 25.264 11.2334 25.2626C11.243 25.2596 11.2542 25.2561 11.2655 25.2524C11.2887 25.2449 11.3205 25.2345 11.3588 25.2219C11.4357 25.1966 11.5433 25.1609 11.6707 25.1186C11.9258 25.0338 12.2628 24.9213 12.5986 24.8091C12.9345 24.6968 13.2694 24.5847 13.5203 24.5007C13.6458 24.4587 13.7503 24.4237 13.8234 24.3992C13.8599 24.387 13.8887 24.3774 13.9082 24.3708C13.918 24.3675 13.9255 24.365 13.9306 24.3633C13.9331 24.3625 13.9351 24.3618 13.9363 24.3614C13.937 24.3612 13.9375 24.361 13.9378 24.3609C13.938 24.3609 13.9381 24.3608 13.9382 24.3608C13.9382 24.3608 13.9382 24.3608 13.9383 24.3608C13.9383 24.3608 13.9383 24.3607 13.7 23.6496C13.4617 22.9385 13.4617 22.9385 13.4617 22.9385C13.4617 22.9385 13.4616 22.9385 13.4616 22.9385C13.4615 22.9385 13.4614 22.9386 13.4612 22.9386C13.4609 22.9387 13.4604 22.9389 13.4598 22.9391C13.4585 22.9395 13.4566 22.9402 13.4541 22.941C13.449 22.9427 13.4415 22.9452 13.4317 22.9485C13.4122 22.9551 13.3835 22.9647 13.347 22.9769C13.2739 23.0014 13.1695 23.0364 13.0441 23.0783C12.7933 23.1623 12.4587 23.2743 12.1231 23.3864C11.7875 23.4986 11.4514 23.6108 11.1975 23.6952C11.0704 23.7374 10.9646 23.7725 10.8899 23.7971C10.8523 23.8095 10.8238 23.8188 10.8047 23.8249C10.7949 23.8281 10.7894 23.8299 10.7871 23.8306C10.7857 23.831 10.7879 23.8303 10.792 23.8291C10.7938 23.8286 10.7992 23.827 10.8065 23.825C10.8102 23.824 10.8167 23.8223 10.825 23.8203C10.831 23.8189 10.849 23.8146 10.8726 23.8105L11.1274 25.2887ZM14.2332 23.1222C11.4894 20.3483 11.2842 16.2552 13.4098 13.2862L12.1902 12.413C9.64783 15.964 9.89859 20.873 13.1668 24.177L14.2332 23.1222ZM12.1394 13.2048C13.3195 15.3997 15.5392 17.4748 18.0229 18.0784L18.3771 16.6208C16.4088 16.1425 14.4945 14.4175 13.4606 12.4945L12.1394 13.2048ZM18.9496 17.3744C18.9872 16.2384 19.388 15.2993 20.0242 14.6492C20.6563 14.0032 21.5621 13.5996 22.7 13.5996V12.0996C21.1869 12.0996 19.8857 12.6461 18.9521 13.6C18.0225 14.5499 17.4988 15.8608 17.4504 17.3248L18.9496 17.3744ZM22.7 13.5996C23.5057 13.5996 24.0959 13.7525 24.5489 13.9943C25.0003 14.2352 25.3617 14.589 25.6738 15.0624L26.9262 14.2368C26.5053 13.5983 25.9692 13.052 25.2551 12.6709C24.5426 12.2907 23.6993 12.0996 22.7 12.0996V13.5996ZM26.3 15.3996H29V13.8996H26.3V15.3996ZM28.376 14.2336L26.576 16.9336L27.824 17.7656L29.624 15.0656L28.376 14.2336Z" fill="#142528"/>
</svg>
